<svg id="Layer_1" data-name="Layer 1" xmlns="http://www.w3.org/2000/svg" viewBox="0 0 187.45 98.17"><defs><style>.cls-1{fill:#6ba843;}.cls-2{fill:#88c057;}</style></defs><title>leaves</title><g id="leaves"><path id="leave" class="cls-1" d="M156.14,135.56a14.24,14.24,0,0,0,5.16,7.51,15.55,15.55,0,0,0,16.76,1.53,15.24,15.24,0,0,0,7.66-16.17,11.84,11.84,0,0,0,3.67-15.74l0,0a7.32,7.32,0,0,0,2.43-1.69,7.71,7.71,0,0,0,1.56-8.26,7.57,7.57,0,0,0-5-4.38,8.43,8.43,0,0,0-12.47-9.12l0,0a11,11,0,0,0-14.58-3.35,11.41,11.41,0,0,0-2.07,1.55,12.68,12.68,0,0,0-17-4.23,12.5,12.5,0,0,0-4.65,4.65,9.3,9.3,0,0,0-12.45,10.39c-14.59,7.85-20.12,17.85-25.83,34.32l-.3.89-.07.19c-2.25,6.78,6.63,14,11.35,8.67,25.18-28.69,39.58,6.83,39.58,6.83s10-4.51,5.58-13.25l.73-.38Z" transform="translate(-6.49 -50.97)"/><path id="leave-2" data-name="leave" class="cls-2" d="M140.59,105.16a14.26,14.26,0,0,0,8.52,3.23,15.52,15.52,0,0,0,14.64-8.3,15.21,15.21,0,0,0-2.92-17.64,11.84,11.84,0,0,0-6-15l0,0a7.28,7.28,0,0,0,1-2.77A7.69,7.69,0,0,0,152.43,57a7.56,7.56,0,0,0-6.6-.75,8.35,8.35,0,0,0-4.16-4.41,8.46,8.46,0,0,0-11.28,4s0,0,0,0a11,11,0,0,0-13.88,5.56,11.21,11.21,0,0,0-.82,2.45A12.67,12.67,0,0,0,98.08,76.58a9.31,9.31,0,0,0-4.31,15.64c-7.51,14.76-6.35,26.13-1.66,42.92.09.3.17.6.26.9l.06.19c2,6.86,13.45,7.76,14.26.66C111,99,143.11,119.94,143.11,119.94s5.66-9.41-3-14.07c.12-.24.25-.48.38-.72Z" transform="translate(-6.49 -50.97)"/><path id="leave-3" data-name="leave" class="cls-1" d="M41.18,130.72l.69.45c-5.29,8.25,4.23,13.74,4.23,13.74S64,111,86.16,142.08c4.15,5.82,13.72-.51,12.16-7.48l0-.2c-.07-.31-.15-.61-.22-.92-4-17-8.52-27.46-22.25-36.73A9.3,9.3,0,0,0,64.46,85.16a12.66,12.66,0,0,0-21.55-2.6A11.42,11.42,0,0,0,41,80.81a11,11,0,0,0-14.83,1.87s0,0,0,0a8.44,8.44,0,0,0-13.32,7.82A7.59,7.59,0,0,0,7.4,94.33a7.74,7.74,0,0,0,.72,8.38,7.35,7.35,0,0,0,2.25,1.92l0,0a11.84,11.84,0,0,0,2.08,16,15.25,15.25,0,0,0,6,16.86,15.58,15.58,0,0,0,16.84.16,14.3,14.3,0,0,0,5.88-7Z" transform="translate(-6.49 -50.97)"/><path id="leave-4" data-name="leave" class="cls-2" d="M54.31,110.7l.46.68c-8.07,5.57-1.42,14.31-1.42,14.31S83,101.34,91.4,138.57c1.58,7,12.85,4.83,14.1-2.2l0-.2c0-.31.11-.62.16-.93,2.84-17.2,2.75-28.62-6.33-42.48a9.31,9.31,0,0,0-6-15.08A12.67,12.67,0,0,0,74.51,67a10.37,10.37,0,0,0-1.08-2.35,11,11,0,0,0-14.4-4l0,0A8.43,8.43,0,0,0,43.7,62.62a7.58,7.58,0,0,0-6.48,1.47,7.7,7.7,0,0,0-2.58,8A7.46,7.46,0,0,0,36,74.73l0,0a11.85,11.85,0,0,0-4.28,15.59,15.25,15.25,0,0,0-1,17.86,15.56,15.56,0,0,0,15.46,6.65,14.25,14.25,0,0,0,8.12-4.14Z" transform="translate(-6.49 -50.97)"/></g></svg>