<svg id="Layer_1" data-name="Layer 1" xmlns="http://www.w3.org/2000/svg" viewBox="0 0 152.69 114.62"><defs><style>.cls-1{fill:#f79756;}.cls-2{fill:none;stroke:#8e4232;stroke-miterlimit:10;stroke-width:2.98px;}</style></defs><title>fish</title><g id="Fish"><path id="topFin" class="cls-1" d="M89.92,42.4h5.86c10.45,0,20.32,2.75,27.82,7.75,8.05,5.37,12.48,12.69,12.48,20.61v4.48H98.88Z" transform="translate(-23.85 -42.4)"/><path id="botFin" class="cls-1" d="M98.88,124.19h37.2v4.48c0,7.92-4.43,15.24-12.48,20.61-7.5,5-17.37,7.74-27.82,7.74H89.92Z" transform="translate(-23.85 -42.4)"/><path id="body" class="cls-1" d="M127.16,64.68c19.74,3.09,37.23,15,48,32.71l1.41,2.32L175.13,102c-10.74,17.7-28.23,29.62-48,32.71a65.33,65.33,0,0,1-28.06-1.69,67.2,67.2,0,0,1-25.95-14.13L51.05,99.71l22.1-19.2A67.22,67.22,0,0,1,99.1,66.37C105,64.72,123.74,64.15,127.16,64.68Z" transform="translate(-23.85 -42.4)"/><path id="backFin" class="cls-1" d="M23.85,117.62v17.91H32.8a7.47,7.47,0,0,1,7.46-7.46H43a19.42,19.42,0,0,0,19.4-19.4V90.76A19.42,19.42,0,0,0,43,71.36H40.26a7.48,7.48,0,0,1-7.46-7.47H23.85V81.8a22.37,22.37,0,0,0,9,17.91A22.39,22.39,0,0,0,23.85,117.62Z" transform="translate(-23.85 -42.4)"/><line id="eyeClosed" class="cls-2" x1="119.1" y1="40.01" x2="127.56" y2="44.15"/></g></svg>